<svg xmlns="http://www.w3.org/2000/svg" xmlns:xlink="http://www.w3.org/1999/xlink" version="1.1" enable-background="new 0 0 100 100" xml:space="preserve" width="100" height="125"><rect id="backgroundrect" width="100%" height="100%" x="0" y="0" fill="none" stroke="none"/><g class="currentLayer"><title>Layer 1</title><path d="M31.961,59.21121268606186 L20.272,47.90721268606186 c-0.6940000000000046,-0.3510000000000003 -1.53,-0.3060000000000003 -2.195,0.09200000000000068 C17.406,48.39521268606186 17,49.10421268606186 17,49.86621268606186 V57.17021268606186 H8.75 C6.679,57.17021268606186 5,59.09921268606186 5,61.17021268606186 c0,2.071 1.6790000000000007,4 3.75,4 H17 v7.306 c0,0.7600000000000033 0.406,1.471 1.077,1.867 c0.3580000000000003,0.2140000000000004 0.7690000000000033,0.3270000000000017 1.18,0.3270000000000017 c0.3470000000000023,0 0.6950000000000046,-0.07900000000000022 1.015,-0.23500000000000001 l11.689,-11.304 C32.655,62.48321268606186 33.2,62.00021268606186 33.2,61.17021268606186 C33.2,60.342212686061856 32.735,59.89121268606186 31.961,59.21121268606186 z" id="svg_1" class="" fill="#0b0bd5" fill-opacity="1"/><path d="M68.039,63.12921268606187 l11.689,11.304 c0.6940000000000036,0.3510000000000003 1.53,0.3060000000000003 2.195,-0.09200000000000053 C82.594,73.94521268606186 83,73.23621268606186 83,72.47421268606186 V65.17021268606186 h8.25 c2.071,0 3.75,-1.929 3.75,-4 c0,-2.071 -1.6790000000000007,-4 -3.75,-4 H83 v-7.306 c0,-0.7600000000000027 -0.406,-1.471 -1.077,-1.867 c-0.3580000000000003,-0.2140000000000004 -0.7690000000000027,-0.32700000000000135 -1.18,-0.32700000000000135 c-0.3470000000000018,0 -0.6950000000000036,0.07900000000000022 -1.015,0.23500000000000001 L68.039,59.208212686061856 C67.345,59.85721268606186 66.8,60.34021268606186 66.8,61.17021268606186 C66.8,61.99821268606186 67.265,62.44921268606186 68.039,63.12921268606187 z" id="svg_2" class="" fill="#0404b8" fill-opacity="1"/><g id="svg_3" class="" fill="#0b0bd5" fill-opacity="1"><path d="M30.052,105.17121268606186 c-0.38100000000000117,0 -0.7680000000000027,-0.05500000000000011 -1.151,-0.17 c-2.116,-0.6350000000000027 -3.317,-2.864 -2.6820000000000004,-4.98 c0.6390000000000027,-2.129 1.3170000000000002,-4.293 2.003,-6.484 C31.58,82.82421268606186 35.051,71.74721268606187 35.051,61.17021268606186 c0,-10.578 -3.471,-21.655 -6.829,-32.367 c-0.687000000000003,-2.191 -1.365,-4.354 -2.003,-6.483 c-0.6350000000000027,-2.116 0.5650000000000006,-4.346 2.6820000000000004,-4.98 c2.116,-0.6380000000000027 4.346,0.5650000000000006 4.98,2.6820000000000004 c0.6300000000000023,2.098 1.298,4.23 1.975,6.39 C39.393,37.69721268606186 43.051,49.36821268606186 43.051,61.17021268606186 c0,11.802 -3.657,23.472 -7.194,34.758 c-0.677000000000003,2.16 -1.3450000000000002,4.293 -1.975,6.392 C33.362,104.05221268606186 31.772,105.17121268606186 30.052,105.17121268606186 z" id="svg_4" fill="#0b0bd5" fill-opacity="1"/></g><g id="svg_5" class="" fill="#0b0bd5" fill-opacity="1"><path d="M69.948,105.17121268606186 c-1.721,0 -3.31,-1.119 -3.829,-2.8520000000000003 c-0.6300000000000023,-2.1 -1.299,-4.233 -1.976,-6.3950000000000005 C60.606,84.64021268606186 56.95,72.97121268606186 56.95,61.17021268606186 c0,-11.801 3.657,-23.471 7.193,-34.756 c0.677000000000003,-2.161 1.346,-4.2940000000000005 1.976,-6.393 c0.6350000000000027,-2.116 2.864,-3.315 4.98,-2.6820000000000004 c2.116,0.6350000000000027 3.316,2.865 2.6820000000000004,4.981 c-0.6390000000000027,2.129 -1.316,4.2940000000000005 -2.004,6.486 C68.42,39.51721268606186 64.95,50.59321268606186 64.95,61.17021268606186 c0,10.576 3.471,21.652 6.827,32.363 c0.687000000000003,2.192 1.365,4.357 2.004,6.487 c0.6350000000000027,2.116 -0.5650000000000006,4.346 -2.6820000000000004,4.98 C70.716,105.11621268606186 70.328,105.17121268606186 69.948,105.17121268606186 z" id="svg_6" fill="#0b0bd5" fill-opacity="1"/></g><g id="svg_7" class="" fill="#0b0bd5" fill-opacity="1"><path d="M50,105.17021268606186 c-2.209,0 -4,-1.791 -4,-4 V21.17021268606186 c0,-2.209 1.791,-4 4,-4 s4,1.791 4,4 v80 C54,103.37921268606186 52.209,105.17021268606186 50,105.17021268606186 z" id="svg_8" fill="#0b0bd5" fill-opacity="1"/></g></g></svg>